<svg width="18" height="18" viewBox="0 0 18 18" fill="none" xmlns="http://www.w3.org/2000/svg">
<path d="M15.9433 8.40927L15.0179 8.78827L15.9433 8.40927ZM2.05667 9.59073L1.13127 9.96974L2.05667 9.59073ZM2.98206 8.78827C3.95314 6.41725 6.28305 4.75 9 4.75V2.75C5.44344 2.75 2.39936 4.93404 1.13127 8.03026L2.98206 8.78827ZM9 4.75C11.7169 4.75 14.0469 6.41725 15.0179 8.78827L16.8687 8.03026C15.6006 4.93404 12.5566 2.75 9 2.75V4.75ZM15.0179 9.21173C14.0469 11.5828 11.7169 13.25 9 13.25V15.25C12.5566 15.25 15.6006 13.066 16.8687 9.96974L15.0179 9.21173ZM9 13.25C6.28305 13.25 3.95314 11.5828 2.98206 9.21173L1.13127 9.96974C2.39936 13.066 5.44344 15.25 9 15.25V13.25ZM15.0179 8.78827C15.0734 8.92381 15.0734 9.07619 15.0179 9.21173L16.8687 9.96974C17.1232 9.34844 17.1232 8.65156 16.8687 8.03026L15.0179 8.78827ZM1.13127 8.03026C0.876815 8.65156 0.876815 9.34844 1.13127 9.96974L2.98206 9.21173C2.92655 9.07619 2.92655 8.92381 2.98206 8.78827L1.13127 8.03026Z" fill="#D8DBE1"/>
<circle cx="9" cy="9" r="2.25" stroke="#D8DBE1" stroke-width="2" stroke-linecap="round" stroke-linejoin="round"/>
</svg>
