<svg width="24" height="24" viewBox="0 0 24 24" fill="none" xmlns="http://www.w3.org/2000/svg">
<path d="M12 2C17.514 2 22 6.486 22 12C22 17.514 17.514 22 12 22C6.486 22 2 17.514 2 12C2 6.486 6.486 2 12 2ZM12 0C5.373 0 0 5.373 0 12C0 18.627 5.373 24 12 24C18.627 24 24 18.627 24 12C24 5.373 18.627 0 12 0Z" fill="#4D89EE"/>
<path d="M11.5 7.81526C12.2123 7.81526 12.7917 8.39052 12.7917 9.09787C12.7917 9.8031 12.2123 10.3784 11.5 10.3784C10.7877 10.3784 10.2083 9.8031 10.2083 9.09787C10.2083 8.39052 10.7877 7.81526 11.5 7.81526ZM11.5 12.1936C13.2208 12.1936 14.6197 10.8045 14.6197 9.09787C14.6197 7.38914 13.2208 6 11.5 6C9.77922 6 8.38243 7.38914 8.38243 9.09787C8.38243 10.8045 9.77922 12.1936 11.5 12.1936ZM12.7616 14.7205C13.3967 14.5756 14.0082 14.3263 14.5725 13.9748C14.9995 13.7085 15.1282 13.1481 14.86 12.7241C14.5897 12.298 14.0275 12.1702 13.5984 12.4386C12.3218 13.2355 10.6782 13.2355 9.39945 12.4386C8.97248 12.1702 8.40818 12.298 8.13998 12.7241C7.87178 13.1481 8.00052 13.7085 8.42749 13.9748C8.99179 14.3263 9.60328 14.5756 10.2384 14.7205L8.49401 16.4505C8.13783 16.8042 8.13783 17.3795 8.49401 17.7331C8.67424 17.91 8.90596 17.9995 9.13983 17.9995C9.3737 17.9995 9.60758 17.91 9.78781 17.7331L11.5 16.0329L13.2143 17.7331C13.5705 18.089 14.1477 18.089 14.506 17.7331C14.8622 17.3795 14.8622 16.8042 14.506 16.4505L12.7616 14.7205Z" fill="#4D89EE"/>
</svg>
