<svg width="18" height="18" viewBox="0 0 18 18" fill="none" xmlns="http://www.w3.org/2000/svg">
<path d="M2.25 6.98529L1.95166 6.03083C1.57024 6.15005 1.29642 6.4849 1.25531 6.8824C1.21419 7.2799 1.41367 7.66371 1.76261 7.85848L2.25 6.98529ZM15 3L15.9514 3.30782C16.0665 2.95217 15.9736 2.56205 15.7106 2.29642C15.4476 2.03079 15.0584 1.93402 14.7017 2.04554L15 3ZM10.875 15.75L9.99265 16.2206C10.1815 16.5747 10.5637 16.7816 10.9634 16.7461C11.3631 16.7106 11.7029 16.4396 11.8264 16.0578L10.875 15.75ZM2.54834 7.93975L15.2983 3.95446L14.7017 2.04554L1.95166 6.03083L2.54834 7.93975ZM14.0486 2.69218L9.92355 15.4422L11.8264 16.0578L15.9514 3.30782L14.0486 2.69218ZM11.7574 15.2794L8.75735 9.65441L6.99265 10.5956L9.99265 16.2206L11.7574 15.2794ZM8.36239 9.25181L2.73739 6.1121L1.76261 7.85848L7.38761 10.9982L8.36239 9.25181ZM8.58211 10.8321L15.7071 3.70711L14.2929 2.29289L7.16789 9.41789L8.58211 10.8321Z" fill="#D8DBE1"/>
</svg>
